<svg width="111" height="44" viewBox="0 0 111 44" fill="none" xmlns="http://www.w3.org/2000/svg">
<circle cx="22" cy="22" r="22" fill="#78B0EF"/>
<path d="M29.8442 23.1781C29.5903 22.5941 29.1993 22.0813 28.4172 21.6496C28.013 21.4211 27.5789 21.2502 27.1274 21.1418C27.4312 21.0007 27.7106 20.8121 27.9551 20.5832C28.3146 20.2618 28.5871 19.8548 28.7473 19.4C28.8948 18.9378 28.955 18.4522 28.925 17.968C28.8692 17.1148 28.7016 16.2871 28.2547 15.693C27.8079 15.0988 27.1782 14.6418 26.3454 14.3219C25.7055 14.0781 25.0504 13.9258 24.0348 13.8699V10.625H22.0036V13.875H20.3786V10.625H18.2965V13.875H13.875V16.3125H15.2903C15.7321 16.3125 16.0317 16.3531 16.184 16.4293C16.3258 16.4899 16.4423 16.5975 16.5141 16.734C16.5801 16.8609 16.6106 17.1605 16.6106 17.6227V26.418C16.6106 26.875 16.5801 27.1695 16.5141 27.3016C16.4481 27.4336 16.4125 27.5504 16.2551 27.6215C16.0977 27.6926 16.0926 27.6875 15.6559 27.6875H14.3153L13.875 30.125H18.293V33.375H20.375V30.125H22V33.375H24.0312V30.1047C25.3516 30.0387 26.291 29.866 27.0477 29.5816C28.0277 29.216 28.7793 28.6828 29.3176 27.982C29.8559 27.2812 30.0285 26.2098 30.0757 25.382C30.1098 24.6457 30.0742 23.6961 29.8442 23.1781ZM20.375 16.6172H22V20.375H20.375V16.6172ZM20.375 27.3828V22.8125H22V27.3828H20.375ZM24.0312 16.8152C24.3359 16.9422 24.534 17.1961 24.732 17.4602C24.9504 17.7496 25.0621 18.1355 25.0621 18.5469C25.0621 18.943 24.9148 19.2832 24.6812 19.5879C24.4883 19.8367 24.3359 20.0094 24.0312 20.1516V16.8152ZM25.4937 26.2961C25.0977 26.6465 24.8691 26.809 24.3715 26.9969C24.2602 27.0361 24.1466 27.0683 24.0312 27.0934V22.8887C24.2299 22.9181 24.4232 22.9762 24.6051 23.0613C25.0012 23.2289 25.377 23.4117 25.6105 23.7316C25.8696 24.0991 26.0112 24.5364 26.0168 24.9859C26.0153 25.5395 25.8731 25.9609 25.4922 26.2961H25.4937Z" fill="white"/>
<path d="M59.598 17.18C58.626 17.18 57.684 17.042 56.772 16.766C55.872 16.49 55.158 16.124 54.63 15.668L55.44 13.85C55.956 14.258 56.586 14.594 57.33 14.858C58.086 15.11 58.842 15.236 59.598 15.236C60.534 15.236 61.23 15.086 61.686 14.786C62.154 14.486 62.388 14.09 62.388 13.598C62.388 13.238 62.256 12.944 61.992 12.716C61.74 12.476 61.416 12.29 61.02 12.158C60.624 12.026 60.084 11.876 59.4 11.708C58.44 11.48 57.66 11.252 57.06 11.024C56.472 10.796 55.962 10.442 55.53 9.962C55.11 9.47 54.9 8.81 54.9 7.982C54.9 7.286 55.086 6.656 55.458 6.092C55.842 5.516 56.412 5.06 57.168 4.724C57.936 4.388 58.872 4.22 59.976 4.22C60.744 4.22 61.5 4.316 62.244 4.508C62.988 4.7 63.63 4.976 64.17 5.336L63.432 7.154C62.88 6.83 62.304 6.584 61.704 6.416C61.104 6.248 60.522 6.164 59.958 6.164C59.034 6.164 58.344 6.32 57.888 6.632C57.444 6.944 57.222 7.358 57.222 7.874C57.222 8.234 57.348 8.528 57.6 8.756C57.864 8.984 58.194 9.164 58.59 9.296C58.986 9.428 59.526 9.578 60.21 9.746C61.146 9.962 61.914 10.19 62.514 10.43C63.114 10.658 63.624 11.012 64.044 11.492C64.476 11.972 64.692 12.62 64.692 13.436C64.692 14.132 64.5 14.762 64.116 15.326C63.744 15.89 63.174 16.34 62.406 16.676C61.638 17.012 60.702 17.18 59.598 17.18ZM78.9283 7.28C80.1403 7.28 81.1003 7.634 81.8083 8.342C82.5163 9.038 82.8703 10.088 82.8703 11.492V17H80.6203V11.78C80.6203 10.94 80.4343 10.31 80.0623 9.89C79.6903 9.458 79.1563 9.242 78.4603 9.242C77.7043 9.242 77.0983 9.494 76.6423 9.998C76.1863 10.49 75.9583 11.198 75.9583 12.122V17H73.7083V11.78C73.7083 10.94 73.5223 10.31 73.1503 9.89C72.7783 9.458 72.2443 9.242 71.5483 9.242C70.7803 9.242 70.1683 9.488 69.7123 9.98C69.2683 10.472 69.0463 11.186 69.0463 12.122V17H66.7963V7.388H68.9383V8.612C69.2983 8.18 69.7483 7.85 70.2883 7.622C70.8283 7.394 71.4283 7.28 72.0883 7.28C72.8083 7.28 73.4443 7.418 73.9963 7.694C74.5603 7.958 75.0043 8.354 75.3283 8.882C75.7243 8.378 76.2343 7.988 76.8583 7.712C77.4823 7.424 78.1723 7.28 78.9283 7.28ZM89.4175 7.28C90.8335 7.28 91.9135 7.622 92.6575 8.306C93.4135 8.978 93.7915 9.998 93.7915 11.366V17H91.6675V15.83C91.3915 16.25 90.9955 16.574 90.4795 16.802C89.9755 17.018 89.3635 17.126 88.6435 17.126C87.9235 17.126 87.2935 17.006 86.7535 16.766C86.2135 16.514 85.7935 16.172 85.4935 15.74C85.2055 15.296 85.0615 14.798 85.0615 14.246C85.0615 13.382 85.3795 12.692 86.0155 12.176C86.6635 11.648 87.6775 11.384 89.0575 11.384H91.5415V11.24C91.5415 10.568 91.3375 10.052 90.9295 9.692C90.5335 9.332 89.9395 9.152 89.1475 9.152C88.6075 9.152 88.0735 9.236 87.5455 9.404C87.0295 9.572 86.5915 9.806 86.2315 10.106L85.3495 8.468C85.8535 8.084 86.4595 7.79 87.1675 7.586C87.8755 7.382 88.6255 7.28 89.4175 7.28ZM89.1115 15.488C89.6755 15.488 90.1735 15.362 90.6055 15.11C91.0495 14.846 91.3615 14.474 91.5415 13.994V12.878H89.2195C87.9235 12.878 87.2755 13.304 87.2755 14.156C87.2755 14.564 87.4375 14.888 87.7615 15.128C88.0855 15.368 88.5355 15.488 89.1115 15.488ZM98.8211 8.792C99.4691 7.784 100.609 7.28 102.241 7.28V9.422C102.049 9.386 101.875 9.368 101.719 9.368C100.843 9.368 100.159 9.626 99.6671 10.142C99.1751 10.646 98.9291 11.378 98.9291 12.338V17H96.6791V7.388H98.8211V8.792ZM110.279 16.478C110.015 16.694 109.691 16.856 109.307 16.964C108.935 17.072 108.539 17.126 108.119 17.126C107.063 17.126 106.247 16.85 105.671 16.298C105.095 15.746 104.807 14.942 104.807 13.886V9.26H103.223V7.46H104.807V5.264H107.057V7.46H109.631V9.26H107.057V13.832C107.057 14.3 107.171 14.66 107.399 14.912C107.627 15.152 107.957 15.272 108.389 15.272C108.893 15.272 109.313 15.14 109.649 14.876L110.279 16.478ZM67.266 39L67.248 30.648L63.108 37.56H62.064L57.924 30.756V39H55.692V26.4H57.618L62.622 34.752L67.536 26.4H69.462L69.48 39H67.266ZM72.6674 29.388H74.9174V39H72.6674V29.388ZM73.8014 27.804C73.3934 27.804 73.0514 27.678 72.7754 27.426C72.4994 27.162 72.3614 26.838 72.3614 26.454C72.3614 26.07 72.4994 25.752 72.7754 25.5C73.0514 25.236 73.3934 25.104 73.8014 25.104C74.2094 25.104 74.5514 25.23 74.8274 25.482C75.1034 25.722 75.2414 26.028 75.2414 26.4C75.2414 26.796 75.1034 27.132 74.8274 27.408C74.5634 27.672 74.2214 27.804 73.8014 27.804ZM83.3245 29.28C84.5365 29.28 85.5085 29.634 86.2405 30.342C86.9725 31.05 87.3385 32.1 87.3385 33.492V39H85.0885V33.78C85.0885 32.94 84.8905 32.31 84.4945 31.89C84.0985 31.458 83.5345 31.242 82.8025 31.242C81.9745 31.242 81.3205 31.494 80.8405 31.998C80.3605 32.49 80.1205 33.204 80.1205 34.14V39H77.8705V29.388H80.0125V30.63C80.3845 30.186 80.8525 29.85 81.4165 29.622C81.9805 29.394 82.6165 29.28 83.3245 29.28ZM99.3167 34.248C99.3167 34.404 99.3047 34.626 99.2807 34.914H91.7387C91.8707 35.622 92.2127 36.186 92.7647 36.606C93.3287 37.014 94.0247 37.218 94.8527 37.218C95.9087 37.218 96.7787 36.87 97.4627 36.174L98.6687 37.56C98.2367 38.076 97.6907 38.466 97.0307 38.73C96.3707 38.994 95.6267 39.126 94.7987 39.126C93.7427 39.126 92.8127 38.916 92.0087 38.496C91.2047 38.076 90.5807 37.494 90.1367 36.75C89.7047 35.994 89.4887 35.142 89.4887 34.194C89.4887 33.258 89.6987 32.418 90.1187 31.674C90.5507 30.918 91.1447 30.33 91.9007 29.91C92.6567 29.49 93.5087 29.28 94.4567 29.28C95.3927 29.28 96.2267 29.49 96.9587 29.91C97.7027 30.318 98.2787 30.9 98.6867 31.656C99.1067 32.4 99.3167 33.264 99.3167 34.248ZM94.4567 31.08C93.7367 31.08 93.1247 31.296 92.6207 31.728C92.1287 32.148 91.8287 32.712 91.7207 33.42H97.1747C97.0787 32.724 96.7847 32.16 96.2927 31.728C95.8007 31.296 95.1887 31.08 94.4567 31.08Z" fill="#444444"/>
</svg>
