<svg width="40" height="40" viewBox="0 0 40 40" fill="none" xmlns="http://www.w3.org/2000/svg">
<rect width="40" height="40" fill="#78B0EF"/>
<path d="M21.4688 14.5156C21.0625 14.1094 20.5625 13.9062 19.9688 13.9062C19.4062 13.9062 18.9219 14.1094 18.5156 14.5156C18.1094 14.9219 17.9062 15.4219 17.9062 16.0156C17.9062 16.5781 18.1094 17.0625 18.5156 17.4688C18.9219 17.875 19.4062 18.0781 19.9688 18.0781C20.5625 18.0781 21.0625 17.875 21.4688 17.4688C21.875 17.0625 22.0781 16.5781 22.0781 16.0156C22.0781 15.4219 21.875 14.9219 21.4688 14.5156ZM24.0938 23.7031C22.75 23.1719 21.3906 22.9062 20.0156 22.9062C18.6406 22.9062 17.2812 23.1719 15.9375 23.7031C14.5938 24.2031 13.9219 24.6406 13.9219 25.0156V26.0938H26.1094V25.0156C26.1094 24.6406 25.4375 24.2031 24.0938 23.7031ZM17.1562 13.1562C17.9375 12.375 18.875 11.9844 19.9688 11.9844C21.0938 11.9844 22.0469 12.375 22.8281 13.1562C23.6094 13.9375 24 14.8906 24 16.0156C24 17.1094 23.6094 18.0469 22.8281 18.8281C22.0469 19.6094 21.0938 20 19.9688 20C18.875 20 17.9375 19.6094 17.1562 18.8281C16.375 18.0469 15.9844 17.1094 15.9844 16.0156C15.9844 14.8906 16.375 13.9375 17.1562 13.1562ZM16.7344 21.4062C17.9219 21.125 19 20.9844 19.9688 20.9844C20.9688 20.9844 22.0625 21.125 23.25 21.4062C24.4375 21.6875 25.5156 22.1562 26.4844 22.8125C27.4844 23.4375 27.9844 24.1719 27.9844 25.0156V28.0156H12V25.0156C12 24.1719 12.4844 23.4375 13.4531 22.8125C14.4531 22.1562 15.5469 21.6875 16.7344 21.4062Z" fill="white"/>
<path d="M24.0938 23.7031L23.9099 24.1682L23.9194 24.1717L24.0938 23.7031ZM15.9375 23.7031L16.1119 24.1718L16.1213 24.1681L15.9375 23.7031ZM13.9219 26.0938H13.4219V26.5938H13.9219V26.0938ZM26.1094 26.0938V26.5938H26.6094V26.0938H26.1094ZM26.4844 22.8125L26.204 23.2265L26.2116 23.2316L26.2194 23.2365L26.4844 22.8125ZM27.9844 28.0156V28.5156H28.4844V28.0156H27.9844ZM12 28.0156H11.5V28.5156H12V28.0156ZM13.4531 22.8125L13.7242 23.2327L13.7275 23.2305L13.4531 22.8125ZM21.8223 14.1621C21.3188 13.6586 20.6901 13.4062 19.9688 13.4062V14.4062C20.4349 14.4062 20.8062 14.5601 21.1152 14.8692L21.8223 14.1621ZM19.9688 13.4062C19.2705 13.4062 18.6598 13.6643 18.1621 14.1621L18.8692 14.8692C19.1839 14.5544 19.542 14.4062 19.9688 14.4062V13.4062ZM18.1621 14.1621C17.6586 14.6655 17.4062 15.2942 17.4062 16.0156H18.4062C18.4062 15.5495 18.5601 15.1782 18.8692 14.8692L18.1621 14.1621ZM17.4062 16.0156C17.4062 16.7139 17.6643 17.3245 18.1621 17.8223L18.8692 17.1152C18.5544 16.8005 18.4062 16.4424 18.4062 16.0156H17.4062ZM18.1621 17.8223C18.6598 18.3201 19.2705 18.5781 19.9688 18.5781V17.5781C19.542 17.5781 19.1839 17.4299 18.8692 17.1152L18.1621 17.8223ZM19.9688 18.5781C20.6901 18.5781 21.3188 18.3258 21.8223 17.8223L21.1152 17.1152C20.8062 17.4242 20.4349 17.5781 19.9688 17.5781V18.5781ZM21.8223 17.8223C22.3201 17.3245 22.5781 16.7139 22.5781 16.0156H21.5781C21.5781 16.4424 21.4299 16.8005 21.1152 17.1152L21.8223 17.8223ZM22.5781 16.0156C22.5781 15.2942 22.3258 14.6655 21.8223 14.1621L21.1152 14.8692C21.4242 15.1782 21.5781 15.5495 21.5781 16.0156H22.5781ZM24.2776 23.2381C22.8783 22.685 21.4567 22.4062 20.0156 22.4062V23.4062C21.3245 23.4062 22.6217 23.6588 23.9099 24.1681L24.2776 23.2381ZM20.0156 22.4062C18.5745 22.4062 17.1529 22.685 15.7537 23.2381L16.1213 24.1681C17.4096 23.6588 18.7067 23.4062 20.0156 23.4062V22.4062ZM15.7631 23.2345C15.0792 23.489 14.5349 23.7385 14.1529 23.9873C13.9623 24.1114 13.7909 24.2488 13.6625 24.404C13.5341 24.5594 13.4219 24.7662 13.4219 25.0156H14.4219C14.4219 25.0775 14.3937 25.0891 14.4332 25.0413C14.4728 24.9934 14.5534 24.9198 14.6986 24.8252C14.9885 24.6365 15.4521 24.4172 16.1119 24.1717L15.7631 23.2345ZM13.4219 25.0156V26.0938H14.4219V25.0156H13.4219ZM13.9219 26.5938H26.1094V25.5938H13.9219V26.5938ZM26.6094 26.0938V25.0156H25.6094V26.0938H26.6094ZM26.6094 25.0156C26.6094 24.7662 26.4972 24.5594 26.3687 24.404C26.2404 24.2488 26.069 24.1114 25.8783 23.9873C25.4963 23.7385 24.9521 23.489 24.2681 23.2345L23.9194 24.1717C24.5792 24.4172 25.0427 24.6365 25.3326 24.8252C25.4779 24.9198 25.5584 24.9934 25.5981 25.0413C25.6376 25.0891 25.6094 25.0775 25.6094 25.0156H26.6094ZM17.5098 13.5098C18.1984 12.8213 19.0091 12.4844 19.9688 12.4844V11.4844C18.7409 11.4844 17.6766 11.9287 16.8027 12.8027L17.5098 13.5098ZM19.9688 12.4844C20.9639 12.4844 21.789 12.8242 22.4746 13.5098L23.1817 12.8027C22.3048 11.9258 21.2236 11.4844 19.9688 11.4844V12.4844ZM22.4746 13.5098C23.1602 14.1954 23.5 15.0205 23.5 16.0156H24.5C24.5 14.7607 24.0586 13.6796 23.1817 12.8027L22.4746 13.5098ZM23.5 16.0156C23.5 16.9753 23.1631 17.786 22.4746 18.4746L23.1817 19.1817C24.0556 18.3077 24.5 17.2435 24.5 16.0156H23.5ZM22.4746 18.4746C21.789 19.1602 20.9639 19.5 19.9688 19.5V20.5C21.2236 20.5 22.3048 20.0586 23.1817 19.1817L22.4746 18.4746ZM19.9688 19.5C19.0091 19.5 18.1984 19.1631 17.5098 18.4746L16.8027 19.1817C17.6766 20.0556 18.7409 20.5 19.9688 20.5V19.5ZM17.5098 18.4746C16.8213 17.786 16.4844 16.9753 16.4844 16.0156H15.4844C15.4844 17.2435 15.9287 18.3077 16.8027 19.1817L17.5098 18.4746ZM16.4844 16.0156C16.4844 15.0205 16.8242 14.1954 17.5098 13.5098L16.8027 12.8027C15.9258 13.6796 15.4844 14.7607 15.4844 16.0156H16.4844ZM16.8496 21.8928C18.0086 21.6183 19.0473 21.4844 19.9688 21.4844V20.4844C18.9527 20.4844 17.8351 20.6317 16.6191 20.9197L16.8496 21.8928ZM19.9688 21.4844C20.9226 21.4844 21.9771 21.6186 23.1348 21.8928L23.3652 20.9197C22.1479 20.6314 21.0149 20.4844 19.9688 20.4844V21.4844ZM23.1348 21.8928C24.2658 22.1607 25.2875 22.6057 26.204 23.2265L26.7648 22.3985C25.7437 21.7068 24.6092 21.2143 23.3652 20.9197L23.1348 21.8928ZM26.2194 23.2365C27.1372 23.8102 27.4844 24.4083 27.4844 25.0156H28.4844C28.4844 23.9355 27.8315 23.0648 26.7494 22.3885L26.2194 23.2365ZM27.4844 25.0156V28.0156H28.4844V25.0156H27.4844ZM27.9844 27.5156H12V28.5156H27.9844V27.5156ZM12.5 28.0156V25.0156H11.5V28.0156H12.5ZM12.5 25.0156C12.5 24.4006 12.8404 23.8028 13.7242 23.2326L13.1821 22.3924C12.1284 23.0722 11.5 23.9431 11.5 25.0156H12.5ZM13.7275 23.2305C14.6778 22.6068 15.7176 22.1609 16.8496 21.8928L16.6191 20.9197C15.3762 21.2141 14.2284 21.7057 13.1788 22.3945L13.7275 23.2305Z" fill="#78B0EF"/>
</svg>
